<?xml version="1.0" encoding="UTF-8" standalone="no"?>
<!DOCTYPE svg PUBLIC "-//W3C//DTD SVG 1.1//EN" "http://www.w3.org/Graphics/SVG/1.1/DTD/svg11.dtd">
<svg width="100%" height="100%" viewBox="0 0 1920 1080" version="1.1" xmlns="http://www.w3.org/2000/svg" xmlns:xlink="http://www.w3.org/1999/xlink" xml:space="preserve" xmlns:serif="http://www.serif.com/" style="fill-rule:evenodd;clip-rule:evenodd;stroke-linejoin:round;stroke-miterlimit:2;">
    <g transform="matrix(1,0,0,1,-10.5727,-55.5066)">
        <rect x="-4.229" y="91.93" width="1938" height="8.458" style="fill:rgb(61,80,183);"/>
    </g>
    <g transform="matrix(1,0,0,1,-10.5727,-5.60346)">
        <rect x="-4.229" y="91.93" width="1938" height="8.458" style="fill:rgb(61,80,183);"/>
    </g>
    <g transform="matrix(1,0,0,1,-10.5727,42.4934)">
        <rect x="-4.229" y="91.93" width="1938" height="8.458" style="fill:rgb(61,80,183);"/>
    </g>
    <g transform="matrix(1,0,0,1,-10.5727,95.4934)">
        <rect x="-4.229" y="91.93" width="1938" height="8.458" style="fill:rgb(61,80,183);"/>
    </g>
    <g transform="matrix(1,0,0,1,-6.60793,144.053)">
        <rect x="-4.229" y="91.93" width="1938" height="8.458" style="fill:rgb(61,80,183);"/>
    </g>
    <g transform="matrix(1,0,0,1,-6.60793,193.956)">
        <rect x="-4.229" y="91.93" width="1938" height="8.458" style="fill:rgb(61,80,183);"/>
    </g>
    <g transform="matrix(1,0,0,1,-6.60793,242.053)">
        <rect x="-4.229" y="91.93" width="1938" height="8.458" style="fill:rgb(61,80,183);"/>
    </g>
    <g transform="matrix(1,0,0,1,-6.60793,295.053)">
        <rect x="-4.229" y="91.93" width="1938" height="8.458" style="fill:rgb(61,80,183);"/>
    </g>
    <g transform="matrix(1,0,0,1,-3.9648,347.577)">
        <rect x="-4.229" y="91.93" width="1938" height="8.458" style="fill:rgb(61,80,183);"/>
    </g>
    <g transform="matrix(1,0,0,1,-3.9648,397.48)">
        <rect x="-4.229" y="91.93" width="1938" height="8.458" style="fill:rgb(61,80,183);"/>
    </g>
    <g transform="matrix(1,0,0,1,-3.9648,445.577)">
        <rect x="-4.229" y="91.93" width="1938" height="8.458" style="fill:rgb(61,80,183);"/>
    </g>
    <g transform="matrix(1,0,0,1,-3.9648,498.577)">
        <rect x="-4.229" y="91.93" width="1938" height="8.458" style="fill:rgb(61,80,183);"/>
    </g>
    <g transform="matrix(1,0,0,1,-13.2159,555.066)">
        <rect x="-4.229" y="91.93" width="1938" height="8.458" style="fill:rgb(61,80,183);"/>
    </g>
    <g transform="matrix(1,0,0,1,-13.2159,604.969)">
        <rect x="-4.229" y="91.93" width="1938" height="8.458" style="fill:rgb(61,80,183);"/>
    </g>
    <g transform="matrix(1,0,0,1,-13.2159,653.066)">
        <rect x="-4.229" y="91.93" width="1938" height="8.458" style="fill:rgb(61,80,183);"/>
    </g>
    <g transform="matrix(1,0,0,1,-13.2159,706.066)">
        <rect x="-4.229" y="91.93" width="1938" height="8.458" style="fill:rgb(61,80,183);"/>
    </g>
    <g transform="matrix(1,0,0,1,-11.8942,755.947)">
        <rect x="-4.229" y="91.93" width="1938" height="8.458" style="fill:rgb(61,80,183);"/>
    </g>
    <g transform="matrix(1,0,0,1,-11.8942,805.85)">
        <rect x="-4.229" y="91.93" width="1938" height="8.458" style="fill:rgb(61,80,183);"/>
    </g>
    <g transform="matrix(1,0,0,1,-11.8942,853.947)">
        <rect x="-4.229" y="91.93" width="1938" height="8.458" style="fill:rgb(61,80,183);"/>
    </g>
    <g transform="matrix(1,0,0,1,-11.8942,906.947)">
        <rect x="-4.229" y="91.93" width="1938" height="8.458" style="fill:rgb(61,80,183);"/>
    </g>
    <g transform="matrix(1,0,0,1,-17.1807,964.757)">
        <rect x="-4.229" y="91.93" width="1938" height="8.458" style="fill:rgb(61,80,183);"/>
    </g>
</svg>
