<?xml version="1.0" encoding="UTF-8" standalone="no"?><!DOCTYPE svg PUBLIC "-//W3C//DTD SVG 1.1//EN" "http://www.w3.org/Graphics/SVG/1.1/DTD/svg11.dtd"><svg width="100%" height="100%" viewBox="0 0 300 200" version="1.1" xmlns="http://www.w3.org/2000/svg" xmlns:xlink="http://www.w3.org/1999/xlink" xml:space="preserve" style="fill-rule:evenodd;clip-rule:evenodd;stroke-linejoin:round;stroke-miterlimit:1.41421;"><path d="M300,10c0,-5.519 -4.481,-10 -10,-10l-280,0c-5.519,0 -10,4.481 -10,10l0,180c0,5.519 4.481,10 10,10l280,0c5.519,0 10,-4.481 10,-10l0,-180Z" style="fill:url(#_Linear1);"/><path d="M152.631,38.01c-13.678,0.001 -24.761,11.087 -24.761,24.761l-0.001,27.852l52.615,-52.613l-27.853,0l0,0Z" style="fill:#f48599;fill-rule:nonzero;"/><path d="M185.307,73.656c-9.672,-9.67 -25.35,-9.67 -35.018,-0.003l-19.695,19.694l74.406,0.003l-19.693,-19.694Z" style="fill:#f48599;fill-rule:nonzero;"/><path d="M110.402,76.727l13.892,13.891l0.002,-52.482l-13.894,13.894c-6.819,6.821 -6.817,17.879 0,24.697Z" style="fill:#f48599;fill-rule:nonzero;"/><path d="M95,80.59c0,6.953 5.636,12.589 12.586,12.588l14.161,-0.001l-26.745,-26.745l-0.002,14.158Z" style="fill:#f48599;fill-rule:nonzero;"/><path id="SvgjsG1108" d="M30.319,108.335c2.463,-0.06 4.568,-0.106 6.316,-0.136c1.748,-0.031 3.154,-0.046 4.218,-0.046c3.314,0 5.921,0.692 7.821,2.075c1.9,1.383 2.85,3.458 2.85,6.225c0,1.337 -0.38,2.584 -1.14,3.739c-0.76,1.155 -1.733,1.991 -2.919,2.508c0.76,0.243 1.482,0.631 2.166,1.163c0.684,0.532 1.27,1.155 1.756,1.869c0.486,0.715 0.874,1.49 1.163,2.326c0.289,0.836 0.433,1.695 0.433,2.577c0,3.131 -0.996,5.449 -2.987,6.954c-1.991,1.505 -4.811,2.257 -8.459,2.257c-1.125,0 -2.614,-0.015 -4.469,-0.046c-1.854,-0.03 -4.104,-0.076 -6.749,-0.136l-0.319,-0.32l0,-30.689l0.319,-0.32Zm10.671,17.511l-3.785,0l0,8.893c0.79,-0.031 1.68,-0.031 2.668,0c0.988,0.03 1.907,-0.046 2.759,-0.228c0.851,-0.183 1.565,-0.624 2.143,-1.323c0.577,-0.699 0.866,-1.672 0.866,-2.918c0,-1.186 -0.372,-2.22 -1.117,-3.101c-0.745,-0.882 -1.923,-1.323 -3.534,-1.323l0,0Zm-3.785,-12.54l0,7.342l3.238,0c1.459,0 2.485,-0.357 3.078,-1.072c0.593,-0.714 0.889,-1.588 0.889,-2.622c0,-1.033 -0.304,-1.892 -0.912,-2.576c-0.608,-0.684 -1.626,-1.026 -3.055,-1.026l-1.847,0c-2.66,0 -3.124,-0.016 -1.391,-0.046l0,0Zm32.377,20.11l7.889,0c0,1.216 -0.076,2.257 -0.228,3.124c-0.152,0.866 -0.638,1.611 -1.459,2.234c-0.821,0.624 -1.9,0.935 -3.238,0.935l-10.306,0c-1.307,0 -2.341,-0.38 -3.101,-1.14c-0.76,-0.76 -1.14,-1.793 -1.14,-3.101l0,-27.041l0.319,-0.32l2.691,0c2.858,0 4.286,1.551 4.286,4.652l0,20.84c1.338,-0.122 2.767,-0.183 4.287,-0.183l0,0Zm33.198,-3.602l-3.603,0l0,9.758c-0.973,0.183 -2.189,0.274 -3.648,0.274c-1.489,0 -2.706,-0.091 -3.648,-0.274l0,-30.917l0.319,-0.32c2.645,-0.06 4.842,-0.106 6.59,-0.136c1.748,-0.031 3.078,-0.046 3.99,-0.046c1.672,0 3.199,0.228 4.583,0.684c1.383,0.456 2.561,1.14 3.534,2.052c0.973,0.912 1.725,2.045 2.257,3.397c0.532,1.353 0.798,2.911 0.798,4.675c0,1.763 -0.273,3.321 -0.821,4.674c-0.547,1.353 -1.307,2.485 -2.28,3.397c-0.973,0.912 -2.151,1.604 -3.534,2.075c-1.383,0.471 -2.896,0.707 -4.537,0.707l0,0Zm-3.603,-16.098l0,10.626c0.852,-0.031 1.528,-0.054 2.03,-0.069c0.501,-0.015 0.828,-0.023 0.98,-0.023c0.821,0 1.505,-0.144 2.052,-0.433c0.547,-0.289 0.988,-0.669 1.322,-1.14c0.335,-0.471 0.578,-1.026 0.73,-1.664c0.152,-0.639 0.228,-1.308 0.228,-2.007c0,-0.669 -0.076,-1.322 -0.228,-1.961c-0.152,-0.638 -0.388,-1.201 -0.707,-1.687c-0.319,-0.486 -0.737,-0.874 -1.254,-1.163c-0.517,-0.289 -1.125,-0.433 -1.824,-0.433l-1.869,0c-1.946,0 -2.433,-0.015 -1.46,-0.046l0,0Zm34.201,5.108c2.189,2.189 3.284,5.32 3.284,9.394c0,1.824 -0.236,3.481 -0.707,4.97c-0.471,1.49 -1.155,2.759 -2.052,3.808c-0.897,1.049 -1.999,1.854 -3.306,2.417c-1.308,0.562 -2.812,0.843 -4.515,0.843c-1.702,0 -3.2,-0.288 -4.492,-0.866c-1.292,-0.578 -2.386,-1.391 -3.283,-2.44c-0.897,-1.048 -1.573,-2.318 -2.029,-3.807c-0.456,-1.49 -0.684,-3.132 -0.684,-4.925c0,-1.824 0.228,-3.474 0.684,-4.948c0.456,-1.475 1.125,-2.744 2.006,-3.808c0.882,-1.064 1.976,-1.885 3.284,-2.462c1.307,-0.578 2.812,-0.867 4.514,-0.867c3.01,0 5.442,0.897 7.296,2.691l0,0Zm-7.25,2.645c-0.669,0 -1.209,0.159 -1.619,0.478c-0.411,0.32 -0.737,0.753 -0.981,1.3c-0.243,0.547 -0.41,1.178 -0.501,1.893c-0.091,0.714 -0.137,1.482 -0.137,2.302c0,1.277 0.038,2.379 0.114,3.307c0.076,0.927 0.228,1.702 0.456,2.325c0.228,0.623 0.547,1.087 0.958,1.391c0.41,0.304 0.95,0.456 1.618,0.456c1.338,0 2.22,-0.585 2.645,-1.756c0.426,-1.17 0.639,-2.834 0.639,-4.993c0,-2.189 -0.213,-3.853 -0.639,-4.993c-0.425,-1.14 -1.276,-1.71 -2.553,-1.71Zm27.908,-4.697c0.182,0.851 0.273,1.702 0.273,2.553c0,0.852 -0.091,1.688 -0.273,2.508l-5.427,-0.091l0,10.489c0,1.428 0.669,2.143 2.007,2.143l2.553,0c0.396,1.094 0.593,2.098 0.593,3.01c0,0.912 -0.061,1.565 -0.182,1.96c-2.25,0.304 -4.317,0.456 -6.202,0.456c-3.831,0 -5.746,-2.112 -5.746,-6.338l0,-11.674l-3.557,0.045c-0.213,-0.76 -0.319,-1.588 -0.319,-2.485c0,-0.897 0.106,-1.755 0.319,-2.576l3.557,0.091l0,-2.645c0,-1.55 0.297,-2.652 0.889,-3.306c0.593,-0.654 1.589,-0.98 2.987,-0.98l2.782,0l0.319,0.319l0,6.612l5.427,-0.091Zm21.204,13.726l-11.902,0c0.061,1.368 0.411,2.432 1.049,3.192c0.639,0.76 1.687,1.14 3.147,1.14c0.729,0 1.573,-0.107 2.531,-0.319c0.957,-0.213 2.059,-0.563 3.306,-1.049c1.003,1.033 1.626,2.432 1.869,4.195c-2.432,1.733 -5.411,2.599 -8.938,2.599c-1.915,0 -3.518,-0.304 -4.81,-0.912c-1.292,-0.608 -2.341,-1.459 -3.147,-2.553c-0.806,-1.095 -1.376,-2.387 -1.71,-3.876c-0.334,-1.49 -0.502,-3.116 -0.502,-4.88c0,-1.702 0.206,-3.275 0.616,-4.719c0.41,-1.445 1.034,-2.699 1.87,-3.763c0.836,-1.064 1.9,-1.9 3.192,-2.508c1.292,-0.608 2.804,-0.912 4.537,-0.912c1.459,0 2.774,0.244 3.945,0.73c1.17,0.486 2.166,1.155 2.986,2.006c0.821,0.852 1.452,1.87 1.893,3.056c0.441,1.185 0.661,2.477 0.661,3.876c0,1.854 -0.197,3.42 -0.593,4.697l0,0Zm-11.947,-4.925l6.019,0l0,-0.502c0,-1.125 -0.251,-2.052 -0.752,-2.782c-0.502,-0.729 -1.254,-1.094 -2.258,-1.094c-0.972,0 -1.694,0.342 -2.166,1.026c-0.471,0.684 -0.752,1.801 -0.843,3.352l0,0Zm36.481,-1.049l0,9.348c0,2.007 0.365,3.512 1.094,4.515c-1.155,1.033 -2.538,1.55 -4.149,1.55c-1.581,0 -2.66,-0.365 -3.238,-1.094c-0.578,-0.73 -0.867,-1.839 -0.867,-3.329l0,-9.713c0,-1.034 -0.136,-1.794 -0.41,-2.28c-0.274,-0.487 -0.806,-0.73 -1.596,-0.73c-0.456,0 -0.973,0.122 -1.55,0.365c-0.578,0.243 -1.171,0.638 -1.779,1.186l0,15.23c-0.517,0.092 -1.079,0.16 -1.687,0.206c-0.608,0.045 -1.231,0.068 -1.87,0.068c-0.638,0 -1.261,-0.023 -1.869,-0.068c-0.608,-0.046 -1.171,-0.114 -1.688,-0.206l0,-22.755l0.32,-0.319l2.69,0c1.854,0 3.101,0.912 3.739,2.736c2.128,-1.885 4.241,-2.827 6.339,-2.827c2.128,0 3.747,0.737 4.856,2.212c1.11,1.474 1.665,3.442 1.665,5.905l0,0Zm18.651,-7.752c0.182,0.851 0.273,1.702 0.273,2.553c0,0.852 -0.091,1.688 -0.273,2.508l-5.427,-0.091l0,10.489c0,1.428 0.669,2.143 2.007,2.143l2.553,0c0.396,1.094 0.593,2.098 0.593,3.01c0,0.912 -0.061,1.565 -0.182,1.96c-2.25,0.304 -4.317,0.456 -6.202,0.456c-3.83,0 -5.746,-2.112 -5.746,-6.338l0,-11.674l-3.557,0.045c-0.212,-0.76 -0.319,-1.588 -0.319,-2.485c0,-0.897 0.107,-1.755 0.319,-2.576l3.557,0.091l0,-2.645c0,-1.55 0.297,-2.652 0.89,-3.306c0.592,-0.654 1.588,-0.98 2.986,-0.98l2.782,0l0.319,0.319l0,6.612l5.427,-0.091Zm12.859,5.289l0,17.511c-0.516,0.092 -1.079,0.16 -1.687,0.206c-0.608,0.045 -1.231,0.068 -1.869,0.068c-0.639,0 -1.27,-0.023 -1.893,-0.068c-0.623,-0.046 -1.193,-0.114 -1.71,-0.206l0,-15.094c0,-1.763 -0.714,-2.645 -2.143,-2.645l-0.684,0c-0.183,-0.577 -0.274,-1.383 -0.274,-2.416c0,-1.004 0.091,-1.855 0.274,-2.554c0.79,-0.061 1.52,-0.114 2.189,-0.16c0.668,-0.045 1.276,-0.068 1.824,-0.068l1.003,0c1.55,0 2.766,0.486 3.648,1.459c0.882,0.973 1.322,2.295 1.322,3.967Zm-7.98,-14.41c0.882,-0.486 2.022,-0.729 3.42,-0.729c1.429,0 2.539,0.243 3.329,0.729c0.365,0.821 0.547,1.703 0.547,2.645c0,0.943 -0.182,1.824 -0.547,2.645c-0.881,0.456 -2.037,0.684 -3.466,0.684c-1.428,0 -2.523,-0.228 -3.283,-0.684c-0.365,-0.821 -0.547,-1.702 -0.547,-2.645c0,-0.942 0.182,-1.824 0.547,-2.645Zm31.1,22.847l-11.902,0c0.061,1.368 0.411,2.432 1.049,3.192c0.639,0.76 1.687,1.14 3.147,1.14c0.729,0 1.573,-0.107 2.531,-0.319c0.957,-0.213 2.059,-0.563 3.306,-1.049c1.003,1.033 1.626,2.432 1.869,4.195c-2.432,1.733 -5.411,2.599 -8.938,2.599c-1.915,0 -3.518,-0.304 -4.81,-0.912c-1.293,-0.608 -2.341,-1.459 -3.147,-2.553c-0.806,-1.095 -1.376,-2.387 -1.71,-3.876c-0.334,-1.49 -0.502,-3.116 -0.502,-4.88c0,-1.702 0.206,-3.275 0.616,-4.719c0.41,-1.445 1.034,-2.699 1.87,-3.763c0.836,-1.064 1.9,-1.9 3.192,-2.508c1.292,-0.608 2.804,-0.912 4.537,-0.912c1.459,0 2.774,0.244 3.945,0.73c1.17,0.486 2.166,1.155 2.986,2.006c0.821,0.852 1.452,1.87 1.893,3.056c0.441,1.185 0.661,2.477 0.661,3.876c0,1.854 -0.197,3.42 -0.593,4.697l0,0Zm-11.947,-4.925l6.019,0l0,-0.502c0,-1.125 -0.251,-2.052 -0.752,-2.782c-0.502,-0.729 -1.254,-1.094 -2.258,-1.094c-0.972,0 -1.694,0.342 -2.166,1.026c-0.471,0.684 -0.752,1.801 -0.843,3.352l0,0Zm25.765,8.801l1.231,0c0.365,1.003 0.547,2.006 0.547,3.01c0,1.003 -0.046,1.656 -0.137,1.96c-1.824,0.304 -3.45,0.456 -4.879,0.456c-2.067,0 -3.534,-0.509 -4.401,-1.527c-0.866,-1.019 -1.299,-2.622 -1.299,-4.811l0,-27.133l0.273,-0.319l2.782,0c1.429,0 2.432,0.319 3.01,0.957c0.577,0.639 0.866,1.748 0.866,3.329l0,21.935c0,1.428 0.669,2.143 2.007,2.143l0,0Z" style="fill:#fff;fill-rule:nonzero;"/><path id="SvgjsG1109" d="M56,154.362l0,-0.181c0,-1.491 -0.554,-2.237 -1.663,-2.237c-0.634,0 -1.093,0.29 -1.375,0.869c-0.282,0.58 -0.423,1.433 -0.423,2.562c0,1.118 0.176,1.949 0.529,2.493c0.352,0.544 0.866,0.816 1.541,0.816c0.353,0 0.743,-0.083 1.172,-0.249c0.428,-0.166 0.894,-0.431 1.397,-0.793c0.252,0.171 0.487,0.405 0.703,0.702c0.217,0.298 0.35,0.582 0.401,0.854c-0.232,0.222 -0.502,0.431 -0.809,0.627c-0.307,0.197 -0.64,0.366 -0.997,0.507c-0.358,0.141 -0.731,0.254 -1.119,0.34c-0.387,0.085 -0.778,0.128 -1.171,0.128c-0.776,0 -1.43,-0.148 -1.964,-0.446c-0.534,-0.297 -0.965,-0.692 -1.293,-1.186c-0.327,-0.494 -0.564,-1.063 -0.71,-1.708c-0.146,-0.644 -0.219,-1.314 -0.219,-2.01c0,-0.906 0.113,-1.7 0.34,-2.38c0.227,-0.68 0.534,-1.247 0.922,-1.7c0.388,-0.453 0.844,-0.793 1.368,-1.02c0.523,-0.227 1.083,-0.34 1.677,-0.34c0.605,0 1.154,0.08 1.647,0.242c0.494,0.161 0.915,0.382 1.262,0.665c0.348,0.282 0.615,0.614 0.801,0.997c0.187,0.383 0.28,0.796 0.28,1.239c0,0.897 -0.459,1.345 -1.375,1.345c-0.272,0 -0.58,-0.045 -0.922,-0.136l0,0Zm7.496,3.401c0.272,0.785 0.821,1.178 1.647,1.178c0.413,0 0.748,-0.103 1.005,-0.309c0.257,-0.207 0.458,-0.469 0.604,-0.786c0.146,-0.318 0.245,-0.673 0.295,-1.066c0.05,-0.393 0.076,-0.781 0.076,-1.163c0,-0.353 -0.013,-0.746 -0.038,-1.179c-0.025,-0.433 -0.098,-0.839 -0.219,-1.217c-0.121,-0.378 -0.313,-0.695 -0.575,-0.952c-0.262,-0.257 -0.644,-0.385 -1.148,-0.385c-0.484,0 -0.854,0.123 -1.111,0.37c-0.257,0.247 -0.448,0.552 -0.574,0.914c-0.126,0.363 -0.204,0.748 -0.234,1.156c-0.031,0.408 -0.046,0.769 -0.046,1.081c0,0.463 0.023,0.877 0.068,1.239c0.046,0.363 0.129,0.736 0.25,1.119Zm-1.225,2.085c-1.078,-0.897 -1.617,-2.373 -1.617,-4.428c0,-0.886 0.104,-1.665 0.31,-2.335c0.207,-0.67 0.504,-1.231 0.892,-1.685c0.388,-0.453 0.859,-0.796 1.413,-1.027c0.554,-0.232 1.179,-0.348 1.874,-0.348c0.695,0 1.322,0.116 1.881,0.348c0.559,0.231 1.033,0.576 1.421,1.035c0.388,0.458 0.685,1.022 0.892,1.692c0.206,0.67 0.309,1.444 0.309,2.32c0,0.877 -0.103,1.65 -0.309,2.32c-0.207,0.67 -0.504,1.232 -0.892,1.685c-0.388,0.453 -0.862,0.796 -1.421,1.028c-0.559,0.231 -1.186,0.347 -1.881,0.347c-1.149,0 -2.106,-0.317 -2.872,-0.952l0,0Zm12.952,-1.436c-0.272,0 -0.474,-0.005 -0.605,-0.015l-0.649,2.192c-0.242,0.06 -0.58,0.09 -1.013,0.09c-0.484,0 -0.877,-0.055 -1.179,-0.166l-0.075,-0.121l3.324,-10.14c0.393,-0.061 0.852,-0.091 1.376,-0.091c0.594,0 1.068,0.035 1.42,0.106l3.265,10.155c-0.353,0.192 -0.751,0.288 -1.194,0.288c-0.524,0 -0.892,-0.091 -1.104,-0.273c-0.211,-0.181 -0.392,-0.528 -0.544,-1.042l-0.287,-0.998c-0.131,0.01 -0.327,0.015 -0.589,0.015l-2.146,0l0,0Zm-0.045,-1.904l0.604,-0.015l1.103,0c0.051,0 0.139,0.003 0.265,0.008c0.126,0.005 0.219,0.007 0.279,0.007l-0.257,-0.937c-0.241,-0.846 -0.518,-1.884 -0.831,-3.113l-0.09,0c-0.081,0.433 -0.323,1.395 -0.726,2.887l-0.347,1.163Zm14.1,-2.146l0,-0.181c0,-1.491 -0.555,-2.237 -1.663,-2.237c-0.634,0 -1.093,0.29 -1.375,0.869c-0.282,0.58 -0.423,1.433 -0.423,2.562c0,1.118 0.176,1.949 0.529,2.493c0.352,0.544 0.866,0.816 1.541,0.816c0.353,0 0.743,-0.083 1.171,-0.249c0.429,-0.166 0.895,-0.431 1.398,-0.793c0.252,0.171 0.487,0.405 0.703,0.702c0.217,0.298 0.35,0.582 0.401,0.854c-0.232,0.222 -0.502,0.431 -0.809,0.627c-0.307,0.197 -0.64,0.366 -0.997,0.507c-0.358,0.141 -0.731,0.254 -1.119,0.34c-0.388,0.085 -0.778,0.128 -1.171,0.128c-0.776,0 -1.431,-0.148 -1.965,-0.446c-0.534,-0.297 -0.964,-0.692 -1.292,-1.186c-0.327,-0.494 -0.564,-1.063 -0.71,-1.708c-0.146,-0.644 -0.219,-1.314 -0.219,-2.01c0,-0.906 0.113,-1.7 0.34,-2.38c0.227,-0.68 0.534,-1.247 0.922,-1.7c0.388,-0.453 0.844,-0.793 1.368,-1.02c0.523,-0.227 1.083,-0.34 1.677,-0.34c0.605,0 1.154,0.08 1.647,0.242c0.494,0.161 0.915,0.382 1.262,0.665c0.348,0.282 0.615,0.614 0.801,0.997c0.187,0.383 0.28,0.796 0.28,1.239c0,0.897 -0.459,1.345 -1.376,1.345c-0.272,0 -0.579,-0.045 -0.921,-0.136l0,0Zm11.002,-0.106l-0.016,-1.118l0,-2.886c0.313,-0.061 0.718,-0.091 1.217,-0.091c0.499,0 0.899,0.03 1.201,0.091l0,10.322c-0.322,0.06 -0.725,0.09 -1.209,0.09c-0.483,0 -0.886,-0.03 -1.209,-0.09l0,-3.204l0.016,-1.119l-0.756,0.015l-1.753,0l-0.756,-0.015l0.015,1.119l0,3.204c-0.312,0.06 -0.715,0.09 -1.209,0.09c-0.493,0 -0.896,-0.03 -1.209,-0.09l0,-10.322c0.313,-0.061 0.716,-0.091 1.209,-0.091c0.494,0 0.897,0.03 1.209,0.091l0,2.886l-0.015,1.118l0.756,-0.015l1.753,0l0.756,0.015Zm6.256,6.318l0,-10.322c0.313,-0.061 0.716,-0.091 1.209,-0.091c0.494,0 0.902,0.03 1.224,0.091l0,10.322c-0.322,0.06 -0.73,0.09 -1.224,0.09c-0.493,0 -0.896,-0.03 -1.209,-0.09Zm14.418,-10.428l0.105,0.106l0,10.276c-0.403,0.091 -0.879,0.136 -1.428,0.136c-0.549,0 -1.035,-0.03 -1.458,-0.09l-2.373,-5.411c-0.282,-0.614 -0.569,-1.325 -0.861,-2.131l-0.046,0.015c0.121,1.471 0.182,2.978 0.182,4.519l0,3.008c-0.313,0.06 -0.69,0.09 -1.134,0.09c-0.443,0 -0.816,-0.03 -1.118,-0.09l0,-10.277c0.383,-0.091 0.844,-0.136 1.383,-0.136c0.539,0 1.02,0.03 1.443,0.091l2.343,5.395c0.423,0.997 0.735,1.763 0.937,2.297l0.06,-0.03c-0.121,-1.401 -0.181,-2.887 -0.181,-4.459l0,-1.843c0,-0.524 0.105,-0.899 0.317,-1.126c0.212,-0.227 0.554,-0.34 1.028,-0.34l0.801,0Zm7.903,4.564l2.373,-0.015c1.068,0 1.602,0.503 1.602,1.511l0,3.975c-1.3,0.413 -2.665,0.619 -4.095,0.619c-0.726,0 -1.368,-0.121 -1.927,-0.363c-0.559,-0.241 -1.028,-0.589 -1.406,-1.042c-0.378,-0.454 -0.662,-1.01 -0.854,-1.67c-0.191,-0.66 -0.287,-1.408 -0.287,-2.244c0,-0.917 0.134,-1.716 0.401,-2.396c0.267,-0.68 0.624,-1.247 1.073,-1.7c0.448,-0.453 0.964,-0.793 1.549,-1.02c0.584,-0.227 1.194,-0.34 1.828,-0.34c1.31,0 2.539,0.363 3.688,1.088c-0.01,0.161 -0.048,0.325 -0.113,0.491c-0.066,0.166 -0.147,0.328 -0.242,0.484c-0.096,0.156 -0.207,0.297 -0.333,0.423c-0.126,0.126 -0.254,0.234 -0.385,0.325c-0.836,-0.544 -1.683,-0.816 -2.539,-0.816c-1.642,0 -2.463,1.148 -2.463,3.445c0,2.287 0.841,3.431 2.523,3.431c0.232,0 0.456,-0.01 0.673,-0.03c0.217,-0.02 0.431,-0.051 0.642,-0.091l0,-1.012c0,-0.232 0.003,-0.434 0.008,-0.605c0.005,-0.171 0.012,-0.317 0.022,-0.438l-0.755,0c-0.433,0 -0.733,-0.083 -0.899,-0.25c-0.167,-0.166 -0.25,-0.425 -0.25,-0.778c0,-0.302 0.056,-0.63 0.166,-0.982l0,0Zm19.224,1.436l0.015,2.009c0,0.393 0.007,0.789 0.022,1.187c0.016,0.398 0.043,0.808 0.084,1.232c-0.232,0.09 -0.59,0.136 -1.073,0.136c-0.504,0 -0.867,-0.036 -1.089,-0.106l-0.151,-0.665c-0.655,0.574 -1.44,0.861 -2.357,0.861c-0.464,0 -0.879,-0.075 -1.247,-0.226c-0.368,-0.152 -0.678,-0.356 -0.929,-0.613c-0.252,-0.256 -0.444,-0.554 -0.575,-0.891c-0.131,-0.338 -0.196,-0.698 -0.196,-1.081c0,-0.765 0.184,-1.4 0.551,-1.904c0.368,-0.504 0.824,-0.841 1.368,-1.012c-0.453,-0.162 -0.813,-0.446 -1.08,-0.854c-0.267,-0.408 -0.401,-0.884 -0.401,-1.428c0,-0.847 0.302,-1.519 0.907,-2.018c0.604,-0.499 1.436,-0.748 2.493,-0.748c0.152,0 0.398,0.01 0.741,0.03c0.343,0.02 0.688,0.061 1.035,0.121c0.348,0.06 0.789,0.181 1.323,0.363c0,0.393 -0.053,0.735 -0.159,1.027c-0.106,0.293 -0.255,0.539 -0.446,0.741c-0.836,-0.282 -1.511,-0.423 -2.025,-0.423c-0.927,0 -1.39,0.368 -1.39,1.103c0,0.786 0.498,1.179 1.496,1.179l2.932,0c0.604,0 1.138,-0.101 1.602,-0.302c0.201,0.261 0.302,0.629 0.302,1.103c0,0.786 -0.474,1.179 -1.421,1.179l-0.332,0l0,0Zm-2.313,0.936l0,-0.536c64.209,7.39 64.214,7.257 0.016,-0.4l-0.968,0c-1.178,0 -1.768,0.498 -1.768,1.496c0,0.453 0.109,0.788 0.325,1.005c0.217,0.216 0.496,0.325 0.839,0.325c0.594,0 1.113,-0.192 1.556,-0.575l0,-1.315l0,0Zm14.055,-4.775l0.015,1.179l0,0.952l3.234,0c0.081,0.302 0.121,0.632 0.121,0.99c0,0.357 -0.04,0.687 -0.121,0.99l-3.234,0l0,4.156c-0.322,0.06 -0.725,0.09 -1.209,0.09c-0.483,0 -0.886,-0.03 -1.209,-0.09l0,-10.232l0.106,-0.09l6.468,0c0.061,0.251 0.091,0.566 0.091,0.944c0,0.378 -0.103,0.658 -0.31,0.839c-0.206,0.181 -0.531,0.272 -0.975,0.272l-2.977,0l0,0Zm9.31,5.456c0.272,0.785 0.821,1.178 1.647,1.178c0.413,0 0.748,-0.103 1.005,-0.309c0.257,-0.207 0.458,-0.469 0.604,-0.786c0.146,-0.318 0.245,-0.673 0.295,-1.066c0.05,-0.393 0.076,-0.781 0.076,-1.163c0,-0.353 -0.013,-0.746 -0.038,-1.179c-0.025,-0.433 -0.098,-0.839 -0.219,-1.217c-0.121,-0.378 -0.313,-0.695 -0.575,-0.952c-0.262,-0.257 -0.644,-0.385 -1.148,-0.385c-0.484,0 -0.854,0.123 -1.111,0.37c-0.257,0.247 -0.448,0.552 -0.574,0.914c-0.126,0.363 -0.204,0.748 -0.235,1.156c-0.03,0.408 -0.045,0.769 -0.045,1.081c0,0.463 0.023,0.877 0.068,1.239c0.046,0.363 0.129,0.736 0.25,1.119l0,0Zm-1.225,2.085c-1.078,-0.897 -1.617,-2.373 -1.617,-4.428c0,-0.886 0.104,-1.665 0.31,-2.335c0.207,-0.67 0.504,-1.231 0.892,-1.685c0.388,-0.453 0.859,-0.796 1.413,-1.027c0.554,-0.232 1.179,-0.348 1.874,-0.348c0.695,0 1.322,0.116 1.881,0.348c0.559,0.231 1.033,0.576 1.421,1.035c0.388,0.458 0.685,1.022 0.892,1.692c0.206,0.67 0.309,1.444 0.309,2.32c0,0.877 -0.103,1.65 -0.309,2.32c-0.207,0.67 -0.504,1.232 -0.892,1.685c-0.388,0.453 -0.862,0.796 -1.421,1.028c-0.559,0.231 -1.186,0.347 -1.881,0.347c-1.149,0 -2.106,-0.317 -2.872,-0.952Zm17.999,-6.408c0,0.333 -0.05,0.648 -0.151,0.945c-0.1,0.297 -0.234,0.564 -0.4,0.801c-0.166,0.237 -0.363,0.443 -0.59,0.619c-0.226,0.177 -0.46,0.31 -0.702,0.401c0.524,0.191 0.912,0.655 1.163,1.39l0.454,1.285c0.171,0.504 0.423,0.876 0.755,1.118c-0.151,0.202 -0.377,0.37 -0.68,0.506c-0.302,0.137 -0.634,0.205 -0.997,0.205c-0.363,0 -0.645,-0.104 -0.846,-0.31c-0.202,-0.207 -0.388,-0.567 -0.56,-1.081l-0.544,-1.587c-0.11,-0.302 -0.259,-0.534 -0.445,-0.695c-0.187,-0.161 -0.466,-0.242 -0.839,-0.242l-0.62,0l0,3.779c-0.322,0.06 -0.725,0.09 -1.209,0.09c-0.483,0 -0.881,-0.03 -1.194,-0.09l0,-10.247l0.106,-0.106c0.877,-0.02 1.615,-0.035 2.214,-0.045c0.6,-0.01 1.071,-0.015 1.413,-0.015c0.554,0 1.058,0.068 1.511,0.204c0.454,0.136 0.839,0.34 1.157,0.612c0.317,0.272 0.564,0.615 0.74,1.028c0.176,0.413 0.264,0.891 0.264,1.435l0,0Zm-5.002,-1.466l0,2.963c0.454,0 0.841,-0.008 1.164,-0.023c0.322,-0.015 0.582,-0.076 0.778,-0.182c0.197,-0.105 0.345,-0.254 0.446,-0.445c0.101,-0.192 0.151,-0.469 0.151,-0.832c0,-0.977 -0.473,-1.465 -1.42,-1.465l-0.628,0c-1.365,0 -1.528,-0.005 -0.491,-0.016l0,0Zm8.101,8.569l0.801,-10.276c0.443,-0.081 0.967,-0.121 1.571,-0.121c0.605,0 1.134,0.04 1.587,0.121l0.892,3.702c0.352,1.673 0.539,2.585 0.559,2.736l0.106,0c0.04,-0.252 0.226,-1.164 0.559,-2.736l0.907,-3.702c0.443,-0.081 0.967,-0.121 1.571,-0.121c0.605,0 1.134,0.04 1.587,0.121l0.801,10.276c-0.312,0.081 -0.698,0.121 -1.156,0.121c-0.458,0 -0.834,-0.025 -1.126,-0.075l-0.242,-4.202c-0.07,-1.672 -0.111,-2.836 -0.121,-3.491l-0.09,0l-1.496,6.151c-0.363,0.061 -0.779,0.091 -1.247,0.091c-0.469,0 -0.884,-0.03 -1.247,-0.091l-1.481,-6.151l-0.106,0c0,0.897 -0.04,2.061 -0.121,3.491l-0.226,4.202c-0.293,0.05 -0.668,0.075 -1.126,0.075c-0.459,0 -0.844,-0.04 -1.156,-0.121Zm16.941,-2.131c-0.272,0 -0.474,-0.005 -0.605,-0.015l-0.65,2.192c-0.241,0.06 -0.579,0.09 -1.012,0.09c-0.484,0 -0.877,-0.055 -1.179,-0.166l-0.075,-0.121l3.324,-10.14c0.393,-0.061 0.852,-0.091 1.376,-0.091c0.594,0 1.068,0.035 1.42,0.106l3.264,10.155c-0.352,0.192 -0.75,0.288 -1.193,0.288c-0.524,0 -0.892,-0.091 -1.104,-0.273c-0.211,-0.181 -0.393,-0.528 -0.544,-1.042l-0.287,-0.998c-0.131,0.01 -0.327,0.015 -0.589,0.015l-2.146,0l0,0Zm-0.046,-1.904l0.605,-0.015l1.103,0c0.051,0 0.139,0.003 0.265,0.008c0.126,0.005 0.219,0.007 0.279,0.007l-0.257,-0.937c-0.241,-0.846 -0.519,-1.884 -0.831,-3.113l-0.091,0c-0.08,0.433 -0.322,1.395 -0.725,2.887l-0.348,1.163Zm12.619,-4.262l0.016,1.119l0,7.209c-0.343,0.06 -0.751,0.09 -1.225,0.09c-0.473,0 -0.871,-0.03 -1.193,-0.09l0,-8.328l-0.968,0.016l-1.556,0c-0.061,-0.293 -0.091,-0.628 -0.091,-1.005c0,-0.378 0.03,-0.713 0.091,-1.005l7.48,0c0.081,0.262 0.121,0.579 0.121,0.952c0,0.372 -0.1,0.642 -0.302,0.808c-0.201,0.166 -0.524,0.25 -0.967,0.25l-0.438,0l-0.952,-0.016l-0.016,0l0,0Zm5.35,8.328l0,-10.322c0.313,-0.061 0.716,-0.091 1.209,-0.091c0.494,0 0.902,0.03 1.224,0.091l0,10.322c-0.322,0.06 -0.73,0.09 -1.224,0.09c-0.493,0 -0.896,-0.03 -1.209,-0.09Zm8.524,-2.811c0.272,0.785 0.821,1.178 1.647,1.178c0.413,0 0.748,-0.103 1.005,-0.309c0.257,-0.207 0.458,-0.469 0.605,-0.786c0.146,-0.318 0.244,-0.673 0.294,-1.066c0.051,-0.393 0.076,-0.781 0.076,-1.163c0,-0.353 -0.013,-0.746 -0.038,-1.179c-0.025,-0.433 -0.098,-0.839 -0.219,-1.217c-0.121,-0.378 -0.312,-0.695 -0.574,-0.952c-0.262,-0.257 -0.645,-0.385 -1.149,-0.385c-0.484,0 -0.854,0.123 -1.111,0.37c-0.257,0.247 -0.448,0.552 -0.574,0.914c-0.126,0.363 -0.204,0.748 -0.234,1.156c-0.03,0.408 -0.046,0.769 -0.046,1.081c0,0.463 0.023,0.877 0.068,1.239c0.046,0.363 0.129,0.736 0.25,1.119l0,0Zm-1.224,2.085c-1.078,-0.897 -1.617,-2.373 -1.617,-4.428c0,-0.886 0.103,-1.665 0.309,-2.335c0.207,-0.67 0.504,-1.231 0.892,-1.685c0.388,-0.453 0.859,-0.796 1.413,-1.027c0.554,-0.232 1.179,-0.348 1.874,-0.348c0.695,0 1.322,0.116 1.882,0.348c0.559,0.231 1.032,0.576 1.42,1.035c0.388,0.458 0.685,1.022 0.892,1.692c0.206,0.67 0.31,1.444 0.31,2.32c0,0.877 -0.104,1.65 -0.31,2.32c-0.207,0.67 -0.504,1.232 -0.892,1.685c-0.388,0.453 -0.861,0.796 -1.42,1.028c-0.56,0.231 -1.187,0.347 -1.882,0.347c-1.148,0 -2.106,-0.317 -2.871,-0.952Zm18.724,-9.702l0.106,0.106l0,10.276c-0.403,0.091 -0.879,0.136 -1.428,0.136c-0.549,0 -1.035,-0.03 -1.459,-0.09l-2.372,-5.411c-0.282,-0.614 -0.569,-1.325 -0.862,-2.131l-0.045,0.015c0.121,1.471 0.181,2.978 0.181,4.519l0,3.008c-0.312,0.06 -0.69,0.09 -1.133,0.09c-0.443,0 -0.816,-0.03 -1.118,-0.09l0,-10.277c0.382,-0.091 0.843,-0.136 1.382,-0.136c0.539,0 1.021,0.03 1.444,0.091l2.342,5.395c0.423,0.997 0.736,1.763 0.937,2.297l0.061,-0.03c-0.121,-1.401 -0.182,-2.887 -0.182,-4.459l0,-1.843c0,-0.524 0.106,-0.899 0.318,-1.126c0.211,-0.227 0.554,-0.34 1.027,-0.34l0.801,0Z" style="fill:#f48599;fill-rule:nonzero;"/><defs><linearGradient id="_Linear1" x1="0" y1="0" x2="1" y2="0" gradientUnits="userSpaceOnUse" gradientTransform="matrix(300,0,0,200,3.55271e-15,100)"><stop offset="0" style="stop-color:#436378;stop-opacity:1"/><stop offset="1" style="stop-color:#647281;stop-opacity:1"/></linearGradient></defs></svg>